/* XPM */
static char *multip[] = {
/* width height num_colors chars_per_pixel */
"    20    20       68            2",
/* colors */
".. c #929292",
".# c #989898",
".a c #9d9d9d",
".b c #9f9f9f",
".c c #a2a2a2",
".d c #aaaaaa",
".e c #b2b2b2",
".f c #b3b3b3",
".g c #b5b5b5",
".h c #b6b6b6",
".i c #bababa",
".j c #bbbbbb",
".k c #bcbcbc",
".l c #bdbdbd",
".m c #bebebe",
".n c #c0c0c0",
".o c #c1c1c1",
".p c #c2c2c2",
".q c #c3c3c3",
".r c #c4c4c4",
".s c #c5c5c5",
".t c #c6c6c6",
".u c #c7c7c7",
".v c #c8c8c8",
".w c #cacaca",
".x c #cbcbcb",
".y c #cdcdcd",
".z c #cecece",
".A c #d0d0d0",
".B c #d1d1d1",
".C c #d3d3d3",
".D c #d5d5d5",
".E c #d6d6d6",
".F c #d7d7d7",
".G c #d8d8d8",
".H c #d9d9d9",
".I c #dbdbdb",
".J c #dcdcdc",
".K c #dddddd",
".L c #dedede",
".M c #dfdfdf",
".N c #e0e0e0",
".O c #e1e1e1",
".P c #e2e2e2",
".Q c #e3e3e3",
".R c #e5e5e5",
".S c #e6e6e6",
".T c #e7e7e7",
".U c #e8e8e8",
".V c #eaeaea",
".W c #ececec",
".X c #ededed",
".Y c #eeeeee",
".Z c #efefef",
".0 c #f0f0f0",
".1 c #f1f1f1",
".2 c #f2f2f2",
".3 c #f3f3f3",
".4 c #f4f4f4",
".5 c #f5f5f5",
".6 c #f6f6f6",
".7 c #f7f7f7",
".8 c #f8f8f8",
".9 c #fafafa",
"#. c #fcfcfc",
"## c #fdfdfd",
"#a c #fefefe",
"#b c #ffffff",
/* pixels */
"#b#b.P#b#b.A.0#b#b#b#b#b#b#b#b#b#b#b#b#b",
".2#a.B.K#b.h#b.m##.r.4#b#b#b#b#b#b#b#b#b",
".N.w#a.e.z.b.l.I.F.x#b#b#b#b#b#b#b#b#b#b",
"#b.R.d.h.0#b.U.g.y#b#b#b#b#b#b#b#b#b#b#b",
"#b##.f.Y.P#b.5.3.w#b#b#b#b#b#b#b#b#b#b#b",
"#b.R.K.1.T.0.M.N.u###b#b#b#b#b#b#b#b#b#b",
"#b.N.R#b#b.a#b#b.w.9#b#b#b#b#b#b#b#b#b#b",
"#b.7.o.R#a.Z##.X.r#b#b#b#b#b.Z#b#b#b#b#b",
"#b#b.E.S.H.N.D.Q.W#b.8.i#b.4.h#b.Z#b.O#b",
"#b#b#b.P.q.q.r.Y#b.A#a.N.C.8.w.J.B.X.j#b",
"#b#b#b#b#b#b#b#b#b.V.e.I...m.p.#.x.g###b",
"#b#b#b#b#b#b#b#b#b#b##.c.8#b#b#a.E.3#b#b",
"#b#b#b#b#b#b#b#b#b#b.D.U.n.R#b.k.1.s#b#b",
"#b#b#b#b#b#b#b#b#b#b.p#b#b#..t.7#a.q#b#b",
"#b#b#b#b#b#b#b#b#b#b.v.6.9.3.B#a#a.q#b#b",
"#b#b#b#b#b#b#b#b#b#b.4.o.E.Y##.C.U.O#b#b",
"#b#b#b#b#b#b#b#b#b#b#b.1.x.D.z.t.T#b#b#b",
"#b#b#b#b#b#b#b#b#b#b#b#b#..L.G.6#b#b#b#b",
"#b#b#b#b#b#b#b#b#b#b#b#b#b#b#b#b#b#b#b#b",
"#b#b#b#b#b#b#b#b#b#b#b#b#b#b#b#b#b#b#b#b"
};
