/* XPM */
static char *lamp[] = {
/* width height num_colors chars_per_pixel */
"    11    20       45            1",
/* colors */
". c #d1d1d1",
"# c #d2d2d2",
"a c #d7d6c7",
"b c #e3e3e3",
"c c #f5f07c",
"d c #f5f07d",
"e c #f5f17c",
"f c #f5f17d",
"g c #f5f17e",
"h c #f5f180",
"i c #f5f185",
"j c #f6f187",
"k c #f6f28d",
"l c #f6f28f",
"m c #f6f295",
"n c #f8f4aa",
"o c #f8f5b2",
"p c #f8f5b3",
"q c #f9f6b6",
"r c #f9f6b8",
"s c #f9f6bc",
"t c #f9f7c3",
"u c #f9f7c5",
"v c #f9f7c6",
"w c #f9f8c7",
"x c #faf8c8",
"y c #faf9d3",
"z c #faf9f3",
"A c #fafafa",
"B c #fbf9d5",
"C c #fbf9d8",
"D c #fbfadc",
"E c #fcfbe2",
"F c #fcfbe6",
"G c #fcfcfc",
"H c #fdfce9",
"I c #fdfceb",
"J c #fdfdef",
"K c #fdfdf0",
"L c #fefdf3",
"M c #fefef6",
"N c #fefef7",
"O c #fffefb",
"P c #fffffd",
"Q c #ffffff",
/* pixels */
"QQQQPJOQQQQ",
"QQQImfkEQQQ",
"QQNlfffiKQQ",
"QQufefffpQQ",
"QPkfffffhMQ",
"QHfffffffDQ",
"QBceeffffvQ",
"QxcdcffdfrQ",
"QtcdcdfdfoQ",
"QwfffffffqQ",
"QydfffffftQ",
"QFcccdfeeCQ",
"QOjeeeeegLQ",
"QQseefefnQQ",
"QQzaaaaaHQQ",
"QQA....#QQQ",
"QQA....#QQQ",
"QQA....#QQQ",
"QQGbbbbbQQQ",
"QQQQQQQQQQQ"
};
