/* XPM */
static char *lal[] = {
/* width height num_colors chars_per_pixel */
"    20    20       77            2",
/* colors */
".. c #000000",
".# c #272727",
".a c #2e2e2e",
".b c #323232",
".c c #3b3b3b",
".d c #3d3d3d",
".e c #424242",
".f c #464646",
".g c #484848",
".h c #4a4a4a",
".i c #4c4c4c",
".j c #4e4e4e",
".k c #505050",
".l c #595959",
".m c #5d5d5d",
".n c #626262",
".o c #656565",
".p c #6a6a6a",
".q c #707070",
".r c #727272",
".s c #7a7a7a",
".t c #7b7b7b",
".u c #7c7c7c",
".v c #7e7e7e",
".w c #7f7f7f",
".x c #838383",
".y c #909090",
".z c #929292",
".A c #959595",
".B c #969696",
".C c #999999",
".D c #a0a0a0",
".E c #a6a6a6",
".F c #a7a7a7",
".G c #a9a9a9",
".H c #acacac",
".I c #adadad",
".J c #afafaf",
".K c #b0b0b0",
".L c #b1b1b1",
".M c #b4b4b4",
".N c #bababa",
".O c #bebebe",
".P c #bfbfbf",
".Q c #c0c0c0",
".R c #c2c2c2",
".S c #c8c8c8",
".T c #cacaca",
".U c #cdcdcd",
".V c #cfcfcf",
".W c #d1d1d1",
".X c #d4d4d4",
".Y c #d5d5d5",
".Z c #d7d7d7",
".0 c #d8d8d8",
".1 c #d9d9d9",
".2 c #dbdbdb",
".3 c #dfdfdf",
".4 c #e0e0e0",
".5 c #e1e1e1",
".6 c #e3e3e3",
".7 c #e4e4e4",
".8 c #e5e5e5",
".9 c #e7e7e7",
"#. c #e9e9e9",
"## c #ebebeb",
"#a c #ededed",
"#b c #eeeeee",
"#c c #efefef",
"#d c #f1f1f1",
"#e c #f3f3f3",
"#f c #f4f4f4",
"#g c #f7f7f7",
"#h c #f9f9f9",
"#i c #fafafa",
"#j c #fbfbfb",
"#k c #ffffff",
/* pixels */
"#k#k#k#k#k#k#k#k#k#k#k#k#k#k#k#k#k#k#k#k",
"#k#k#k#k#k#k#k#k#k#k#k#k#k#k#k#k#k#k#k#k",
"#k#k#k#e.U.Y#k#k#k#k#k#k#k.2.T#b#k#k#k#k",
"#k#k.9.f.....w#k#k#k#k#k.C.....a.1#k#k#k",
"#k#k.A.........U#k#k#k.5.........q#k#k#k",
"#k#k.w.........P#k#k#k.X.........j#k#k#k",
"#k#k.P.......##.#k#k#k#g.g.......E#k#k#k",
"#k#k#k.N.f.r.1#k#k#k#k#k.7.v.c.H#k#k#k#k",
"#k.O.D#d.z.Z#k#h#k#k#f.s.X.3.x#k#k#k#k#k",
"#k#f.F.e.j.u.l.k#k#k#k.W.o.m.k.t.b.S#k#k",
"#k#k#k##.p.G.9#k#k#k#k#k#k.M.n.Z#j#k#k#k",
"#k#k#k#k.z.Z#k#k#k#k#k#k#k.4.x#k#k#k#k#k",
"#k#k#k#k.z.Z#k#k#k#k#k#k#k.4.x#k#k#k#k#k",
"#k#k#k.5.d.K#k#k#k#k#k#k#k.y.g#i#k#k#k#k",
"#k#k.5.h.R.e#c#k#k#k#k#k.y.y.B.K#k#k#k#k",
"#k.5.h.Z#k.I.C#k#k#k#k.y.y#k#b.c#a#k#k#k",
".5.h.Z#k#k#j.i.6#k#k.y.y#k#k#k.L.C#k#k#k",
".V.0#k#k#k#k.Y.8#k#i.J#k#k#k#k#j.Q#k#k#k",
"#k#k#k#k#k#k#k#k#k#k#k#k#k#k#k#k#k#k#k#k",
"#k#k#k#k#k#k#k#k#k#k#k#k#k#k#k#k#k#k#k#k"
};
